<?xml version="1.0" encoding="utf-8"?>
<!DOCTYPE svg PUBLIC "-//W3C//DTD SVG 1.1//EN" "http://www.w3.org/Graphics/SVG/1.1/DTD/svg11.dtd">
<svg version="1.1" id="Layer_1" xmlns="http://www.w3.org/2000/svg" xmlns:xlink="http://www.w3.org/1999/xlink" x="0px" y="0px"
	 width="400px" height="400px" viewBox="0 0 400 400" enable-background="new 0 0 400 400" xml:space="preserve">
<path fill="#0000FF" d="M330.248,144.093c33.588,19.571,58.1,53.892,63.646,95.401c9.536,71.352-40.576,136.922-111.929,146.459
	c-29.825,3.986-58.649-2.455-82.789-16.51"/>
<path fill="#00FF00" d="M199.176,369.44c-14.242,8.166-30.276,13.758-47.555,16.067c-71.35,9.537-136.922-40.576-146.457-111.924
	c-7.151-53.51,19.247-103.776,62.995-129.585c0.456-0.27,0.915-0.536,1.375-0.8"/>
<path fill="#FF0000" d="M69.535,143.206c0.137-64.194,47.692-120.011,113.091-128.751c71.349-9.537,136.919,40.576,146.456,111.926
	c0.797,5.951,1.178,11.864,1.166,17.706"/>
<path fill="#FFFF00" d="M134.347,256.314c-33.583-19.567-58.1-53.893-63.649-95.4c-0.794-5.952-1.172-11.865-1.162-17.707
	l-0.001-0.007c14.242-8.169,30.276-13.765,47.555-16.074c29.836-3.987,58.659,2.454,82.802,16.516"/>
<path fill="#FF00FF" d="M198.508,144.443c14.58-8.604,31.094-14.489,48.932-16.874c29.838-3.989,58.666,2.457,82.81,16.523v-0.006
	c-0.103,47.232-25.875,89.93-65.531,112.678"/>
<path fill="#00FFFF" d="M264.709,256.76c-0.096,47.236-25.867,89.933-65.533,112.681l0.002,0.004
	c-33.593-19.568-58.117-53.896-63.667-95.415c-0.796-5.954-1.174-11.866-1.164-17.711"/>
<path fill="#FFFFFF" d="M264.717,256.764c-14.248,8.168-30.279,13.766-47.559,16.076c-29.838,3.984-58.669-2.455-82.811-16.525
	v0.004c0.101-46.682,25.278-88.936,64.161-111.875l1.383-0.803c33.589,19.57,58.111,53.895,63.66,95.408
	c0.793,5.955,1.174,11.867,1.158,17.711L264.717,256.764z"/>
</svg>
