<svg width="1200" height="632" viewBox="0 0 1200 632" fill="none" xmlns="http://www.w3.org/2000/svg">
<rect width="1200" height="632" fill="white"/>
<rect width="1200" height="632" fill="#F0F0F0"/>
<circle cx="226.5" cy="183.5" r="15.5" fill="#2E2E2E"/>
<circle cx="226.5" cy="235.5" r="15.5" fill="#2E2E2E"/>
<circle cx="226.5" cy="287.5" r="15.5" fill="#2E2E2E"/>
<circle cx="226.5" cy="339.5" r="15.5" fill="#2E2E2E"/>
<circle cx="226.5" cy="391.5" r="15.5" fill="#2E2E2E"/>
<circle cx="226.5" cy="443.5" r="15.5" fill="#2E2E2E"/>
<ellipse cx="275" cy="183.5" rx="16" ry="15.5" fill="#2E2E2E"/>
<ellipse cx="275" cy="235.5" rx="16" ry="15.5" fill="#2E2E2E"/>
<ellipse cx="275" cy="287.5" rx="16" ry="15.5" fill="#2E2E2E"/>
<ellipse cx="275" cy="339.5" rx="16" ry="15.5" fill="#2E2E2E"/>
<ellipse cx="275" cy="391.5" rx="16" ry="15.5" fill="#2E2E2E"/>
<ellipse cx="275" cy="443.5" rx="16" ry="15.5" fill="#2E2E2E"/>
<circle cx="323.5" cy="183.5" r="15.5" fill="#2E2E2E"/>
<circle cx="323.5" cy="235.5" r="15.5" fill="#2E2E2E"/>
<circle cx="323.5" cy="287.5" r="15.5" fill="#2E2E2E"/>
<circle cx="323.5" cy="339.5" r="15.5" fill="#2E2E2E"/>
<circle cx="323.5" cy="391.5" r="15.5" fill="#2E2E2E"/>
<circle cx="323.5" cy="443.5" r="15.5" fill="#2E2E2E"/>
<circle cx="373.5" cy="183.5" r="15.5" fill="#2E2E2E"/>
<circle cx="373.5" cy="235.5" r="15.5" fill="#2E2E2E"/>
<circle cx="373.5" cy="287.5" r="15.5" fill="#2E2E2E"/>
<circle cx="373.5" cy="339.5" r="15.5" fill="#2E2E2E"/>
<circle cx="373.5" cy="391.5" r="15.5" fill="#2E2E2E"/>
<circle cx="373.5" cy="443.5" r="15.5" fill="#2E2E2E"/>
<ellipse cx="422" cy="183.5" rx="16" ry="15.5" fill="#2E2E2E"/>
<ellipse cx="422" cy="235.5" rx="16" ry="15.5" fill="#2E2E2E"/>
<ellipse cx="422" cy="287.5" rx="16" ry="15.5" fill="#2E2E2E"/>
<ellipse cx="422" cy="339.5" rx="16" ry="15.5" fill="#2E2E2E"/>
<ellipse cx="422" cy="391.5" rx="16" ry="15.5" fill="#2E2E2E"/>
<ellipse cx="422" cy="443.5" rx="16" ry="15.5" fill="#2E2E2E"/>
<circle cx="470.5" cy="183.5" r="15.5" fill="#2E2E2E"/>
<circle cx="470.5" cy="235.5" r="15.5" fill="#2E2E2E"/>
<circle cx="470.5" cy="287.5" r="15.5" fill="#2E2E2E"/>
<circle cx="470.5" cy="339.5" r="15.5" fill="#2E2E2E"/>
<circle cx="470.5" cy="391.5" r="15.5" fill="#2E2E2E"/>
<circle cx="470.5" cy="443.5" r="15.5" fill="#2E2E2E"/>
<circle cx="724.5" cy="449.5" r="9.5" fill="#29B79B"/>
<ellipse cx="773.5" cy="449" rx="9.5" ry="9" fill="#29B79B"/>
<ellipse cx="872" cy="449.5" rx="9" ry="9.5" fill="#29B79B"/>
<ellipse cx="921.5" cy="449" rx="9.5" ry="9" fill="#29B79B"/>
<circle cx="822.5" cy="177.5" r="9.5" fill="#29B79B"/>
<circle cx="798.5" cy="222.5" r="9.5" fill="#29B79B"/>
<circle cx="773.5" cy="268.5" r="9.5" fill="#29B79B"/>
<circle cx="724.5" cy="358.5" r="9.5" fill="#29B79B"/>
<circle cx="675.5" cy="449.5" r="9.5" fill="#29B79B"/>
<ellipse cx="700" cy="404.5" rx="9" ry="9.5" fill="#29B79B"/>
<circle r="9.5" transform="matrix(-1 0 0 1 857.5 222.5)" fill="#29B79B"/>
<circle r="9.5" transform="matrix(-1 0 0 1 882.5 268.5)" fill="#29B79B"/>
<circle r="9.5" transform="matrix(-1 0 0 1 931.5 358.5)" fill="#29B79B"/>
<circle r="9.5" transform="matrix(-1 0 0 1 980.5 449.5)" fill="#29B79B"/>
<circle r="9.5" transform="matrix(-1 0 0 1 956.5 404.5)" fill="#29B79B"/>
</svg>
