<?xml version="1.0" encoding="utf-8"?>
<!-- Generator: Adobe Illustrator 16.0.4, SVG Export Plug-In . SVG Version: 6.00 Build 0)  -->
<!DOCTYPE svg PUBLIC "-//W3C//DTD SVG 1.1//EN" "http://www.w3.org/Graphics/SVG/1.1/DTD/svg11.dtd">
<svg version="1.1" id="Layer_1" xmlns="http://www.w3.org/2000/svg" xmlns:xlink="http://www.w3.org/1999/xlink" x="0px" y="0px"
	 width="800px" height="400px" viewBox="0 0 800 400" enable-background="new 0 0 800 400" xml:space="preserve">
<rect display="none" fill="#F4F4C0" width="800" height="400"/>
<rect display="none" fill="#3F3B30" width="800" height="400"/>
<path fill="none" stroke="#6F97B2" stroke-miterlimit="10" d="M66.333,270.667c0,0-10.667,18.001,6,30.667s36.667-12.001,56-43.334
	S159.667,201,229,192c39.458-5.122,84-45.333,90-92.667S274.786-4.37,244.333,126.667c-22,94.667-20.667,100.667-19.333,108"/>
<polyline fill="none" stroke="#AF3D37" stroke-miterlimit="10" points="225.333,235 262.667,240.334 254.667,270.334 300,259 
	295.333,339.667 "/>
<g>
	<line fill="#FFFFFF" x1="295.333" y1="340.334" x2="426.334" y2="161.333"/>
	<g>
		<g>
			<g>
				<g>
					
						<rect x="295.597" y="338.205" transform="matrix(0.8073 0.5902 -0.5902 0.8073 257.3638 -109.309)" fill="#ECCA4B" width="0.889" height="2.364"/>
					
						<rect x="297.677" y="335.364" transform="matrix(0.8071 0.5905 -0.5905 0.8071 256.2329 -111.0973)" fill="#ECCA4B" width="0.888" height="2.364"/>
					
						<rect x="299.755" y="332.523" transform="matrix(0.8067 0.5909 -0.5909 0.8067 255.2077 -112.8985)" fill="#ECCA4B" width="0.889" height="2.365"/>
					
						<rect x="301.835" y="329.682" transform="matrix(0.8071 0.5905 -0.5905 0.8071 253.6799 -114.6494)" fill="#ECCA4B" width="0.888" height="2.364"/>
					
						<rect x="303.914" y="326.84" transform="matrix(0.8067 0.5909 -0.5909 0.8067 252.6536 -116.4543)" fill="#ECCA4B" width="0.889" height="2.364"/>
					
						<rect x="305.994" y="323.999" transform="matrix(0.8073 0.5902 -0.5902 0.8073 250.9831 -118.1834)" fill="#ECCA4B" width="0.889" height="2.364"/>
					
						<rect x="308.073" y="321.158" transform="matrix(0.8073 0.5902 -0.5902 0.8073 249.7072 -119.958)" fill="#ECCA4B" width="0.889" height="2.364"/>
				</g>
			</g>
			<g>
				<g>
					
						<rect x="310.153" y="318.316" transform="matrix(0.8073 0.5902 -0.5902 0.8073 248.4308 -121.7331)" fill="#ECCA4B" width="0.889" height="2.364"/>
					
						<rect x="312.232" y="315.475" transform="matrix(0.8065 0.5912 -0.5912 0.8065 247.6881 -123.5868)" fill="#ECCA4B" width="0.889" height="2.365"/>
					
						<rect x="314.311" y="312.634" transform="matrix(0.8067 0.5909 -0.5909 0.8067 246.2684 -125.3434)" fill="#ECCA4B" width="0.889" height="2.365"/>
					
						<rect x="316.391" y="309.793" transform="matrix(0.8071 0.5905 -0.5905 0.8071 244.7448 -127.081)" fill="#ECCA4B" width="0.888" height="2.364"/>
					
						<rect x="318.47" y="306.952" transform="matrix(0.8067 0.5909 -0.5909 0.8067 243.7142 -128.8992)" fill="#ECCA4B" width="0.889" height="2.364"/>
					
						<rect x="320.55" y="304.11" transform="matrix(0.8067 0.5909 -0.5909 0.8067 242.4369 -130.6772)" fill="#ECCA4B" width="0.889" height="2.364"/>
					
						<rect x="322.629" y="301.269" transform="matrix(0.8071 0.5905 -0.5905 0.8071 240.9155 -132.4086)" fill="#ECCA4B" width="0.888" height="2.364"/>
				</g>
			</g>
			<g>
				<g>
					
						<rect x="324.708" y="298.427" transform="matrix(0.8067 0.5909 -0.5909 0.8067 239.8827 -134.2329)" fill="#ECCA4B" width="0.889" height="2.364"/>
					
						<rect x="326.787" y="295.586" transform="matrix(0.8067 0.5909 -0.5909 0.8067 238.6058 -136.0105)" fill="#ECCA4B" width="0.889" height="2.364"/>
					
						<rect x="328.867" y="292.745" transform="matrix(0.8071 0.5905 -0.5905 0.8071 237.086 -137.7365)" fill="#ECCA4B" width="0.888" height="2.365"/>
					
						<rect x="330.946" y="289.904" transform="matrix(0.8067 0.5909 -0.5909 0.8067 236.0514 -139.5664)" fill="#ECCA4B" width="0.889" height="2.363"/>
					
						<rect x="333.026" y="287.062" transform="matrix(0.8073 0.5902 -0.5902 0.8073 234.3934 -141.2564)" fill="#ECCA4B" width="0.889" height="2.364"/>
					
						<rect x="335.106" y="284.221" transform="matrix(0.8073 0.5902 -0.5902 0.8073 233.117 -143.0316)" fill="#ECCA4B" width="0.889" height="2.364"/>
					
						<rect x="337.184" y="281.38" transform="matrix(0.8065 0.5912 -0.5912 0.8065 232.3591 -144.9339)" fill="#ECCA4B" width="0.889" height="2.364"/>
				</g>
			</g>
			<g>
				<g>
					
						<rect x="339.264" y="278.538" transform="matrix(0.8067 0.5909 -0.5909 0.8067 230.9433 -146.6776)" fill="#ECCA4B" width="0.889" height="2.365"/>
					
						<rect x="341.343" y="275.697" transform="matrix(0.8073 0.5902 -0.5902 0.8073 229.2888 -148.356)" fill="#ECCA4B" width="0.889" height="2.364"/>
					
						<rect x="343.423" y="272.856" transform="matrix(0.8071 0.5905 -0.5905 0.8071 228.1506 -150.1682)" fill="#ECCA4B" width="0.888" height="2.364"/>
					
						<rect x="345.502" y="270.015" transform="matrix(0.8073 0.5902 -0.5902 0.8073 226.7365 -151.9057)" fill="#ECCA4B" width="0.889" height="2.364"/>
					
						<rect x="347.581" y="267.174" transform="matrix(0.8071 0.5905 -0.5905 0.8071 225.5975 -153.7201)" fill="#ECCA4B" width="0.888" height="2.364"/>
					
						<rect x="349.661" y="264.332" transform="matrix(0.8073 0.5902 -0.5902 0.8073 224.1843 -155.4557)" fill="#ECCA4B" width="0.889" height="2.364"/>
					
						<rect x="351.74" y="261.491" transform="matrix(0.8073 0.5902 -0.5902 0.8073 222.9083 -157.2302)" fill="#ECCA4B" width="0.889" height="2.363"/>
				</g>
			</g>
			<g>
				<g>
					
						<rect x="353.82" y="258.649" transform="matrix(0.8073 0.5902 -0.5902 0.8073 221.6322 -159.0051)" fill="#ECCA4B" width="0.889" height="2.365"/>
					
						<rect x="355.899" y="255.808" transform="matrix(0.8073 0.5902 -0.5902 0.8073 220.356 -160.78)" fill="#ECCA4B" width="0.889" height="2.364"/>
					
						<rect x="357.978" y="252.967" transform="matrix(0.8067 0.5909 -0.5909 0.8067 219.4497 -162.678)" fill="#ECCA4B" width="0.889" height="2.364"/>
					
						<rect x="360.058" y="250.126" transform="matrix(0.8073 0.5902 -0.5902 0.8073 217.8037 -164.3297)" fill="#ECCA4B" width="0.889" height="2.364"/>
					
						<rect x="362.137" y="247.284" transform="matrix(0.8065 0.5912 -0.5912 0.8065 217.0301 -166.2809)" fill="#ECCA4B" width="0.889" height="2.365"/>
					
						<rect x="364.217" y="244.443" transform="matrix(0.8067 0.5909 -0.5909 0.8067 215.6182 -168.012)" fill="#ECCA4B" width="0.889" height="2.364"/>
					
						<rect x="366.296" y="241.603" transform="matrix(0.8073 0.5902 -0.5902 0.8073 213.9756 -169.6542)" fill="#ECCA4B" width="0.889" height="2.363"/>
				</g>
			</g>
			<g>
				<g>
					
						<rect x="368.375" y="238.76" transform="matrix(0.8071 0.5905 -0.5905 0.8071 212.8326 -171.4798)" fill="#ECCA4B" width="0.888" height="2.364"/>
					
						<rect x="370.454" y="235.919" transform="matrix(0.8067 0.5909 -0.5909 0.8067 211.7872 -173.3453)" fill="#ECCA4B" width="0.889" height="2.364"/>
					
						<rect x="372.534" y="233.078" transform="matrix(0.8073 0.5902 -0.5902 0.8073 210.1471 -174.9787)" fill="#ECCA4B" width="0.889" height="2.364"/>
					
						<rect x="374.613" y="230.237" transform="matrix(0.8067 0.5909 -0.5909 0.8067 209.233 -176.9009)" fill="#ECCA4B" width="0.889" height="2.364"/>
					
						<rect x="376.693" y="227.395" transform="matrix(0.8071 0.5905 -0.5905 0.8071 207.7269 -178.5834)" fill="#ECCA4B" width="0.888" height="2.365"/>
					
						<rect x="378.772" y="224.554" transform="matrix(0.8065 0.5912 -0.5912 0.8065 206.8107 -180.5128)" fill="#ECCA4B" width="0.889" height="2.364"/>
					
						<rect x="380.851" y="221.713" transform="matrix(0.8067 0.5909 -0.5909 0.8067 205.4019 -182.2342)" fill="#ECCA4B" width="0.889" height="2.364"/>
				</g>
			</g>
			<g>
				<g>
					
						<rect x="382.931" y="218.871" transform="matrix(0.8065 0.5912 -0.5912 0.8065 204.2558 -184.0704)" fill="#ECCA4B" width="0.889" height="2.365"/>
					
						<rect x="385.01" y="216.03" transform="matrix(0.8071 0.5905 -0.5905 0.8071 202.621 -185.6874)" fill="#ECCA4B" width="0.888" height="2.364"/>
					
						<rect x="387.089" y="213.189" transform="matrix(0.8071 0.5905 -0.5905 0.8071 201.3443 -187.463)" fill="#ECCA4B" width="0.888" height="2.364"/>
					
						<rect x="389.169" y="210.348" transform="matrix(0.8065 0.5912 -0.5912 0.8065 200.4235 -189.4073)" fill="#ECCA4B" width="0.889" height="2.364"/>
					
						<rect x="391.248" y="207.507" transform="matrix(0.8071 0.5905 -0.5905 0.8071 198.7914 -191.0152)" fill="#ECCA4B" width="0.888" height="2.364"/>
					
						<rect x="393.328" y="204.665" transform="matrix(0.8075 0.5899 -0.5899 0.8075 197.2563 -192.6643)" fill="#ECCA4B" width="0.889" height="2.363"/>
					
						<rect x="395.407" y="201.825" transform="matrix(0.8065 0.5912 -0.5912 0.8065 196.5914 -194.7439)" fill="#ECCA4B" width="0.889" height="2.363"/>
				</g>
			</g>
			<g>
				<g>
					
						<rect x="397.486" y="198.982" transform="matrix(0.8068 0.5908 -0.5908 0.8068 195.1379 -196.4332)" fill="#ECCA4B" width="0.888" height="2.364"/>
					
						<rect x="399.566" y="196.141" transform="matrix(0.8068 0.5908 -0.5908 0.8068 193.861 -198.2104)" fill="#ECCA4B" width="0.888" height="2.365"/>
					
						<rect x="401.645" y="193.3" transform="matrix(0.8068 0.5908 -0.5908 0.8068 192.5841 -199.9876)" fill="#ECCA4B" width="0.888" height="2.364"/>
					
						<rect x="403.724" y="190.459" transform="matrix(0.8072 0.5903 -0.5903 0.8072 191.0519 -201.6274)" fill="#ECCA4B" width="0.889" height="2.363"/>
					
						<rect x="405.804" y="187.618" transform="matrix(0.8068 0.5908 -0.5908 0.8068 190.0303 -203.5428)" fill="#ECCA4B" width="0.888" height="2.364"/>
					
						<rect x="407.884" y="184.776" transform="matrix(0.8072 0.5903 -0.5903 0.8072 188.4993 -205.1782)" fill="#ECCA4B" width="0.889" height="2.364"/>
					
						<rect x="409.963" y="181.936" transform="matrix(0.8068 0.5908 -0.5908 0.8068 187.4765 -207.0976)" fill="#ECCA4B" width="0.888" height="2.363"/>
				</g>
			</g>
			<g>
				<g>
					
						<rect x="412.042" y="179.094" transform="matrix(0.8068 0.5908 -0.5908 0.8068 186.1994 -208.8752)" fill="#ECCA4B" width="0.888" height="2.364"/>
					
						<rect x="414.121" y="176.252" transform="matrix(0.8068 0.5908 -0.5908 0.8068 184.9224 -210.6525)" fill="#ECCA4B" width="0.888" height="2.364"/>
					
						<rect x="416.2" y="173.411" transform="matrix(0.8068 0.5908 -0.5908 0.8068 183.6455 -212.4297)" fill="#ECCA4B" width="0.888" height="2.365"/>
					
						<rect x="418.28" y="170.57" transform="matrix(0.8072 0.5903 -0.5903 0.8072 182.1181 -214.0543)" fill="#ECCA4B" width="0.889" height="2.364"/>
					
						<rect x="420.359" y="167.729" transform="matrix(0.8068 0.5908 -0.5908 0.8068 181.0917 -215.9849)" fill="#ECCA4B" width="0.888" height="2.365"/>
					
						<rect x="422.439" y="164.888" transform="matrix(0.8072 0.5903 -0.5903 0.8072 179.5657 -217.605)" fill="#ECCA4B" width="0.889" height="2.364"/>
					
						<rect x="424.518" y="162.047" transform="matrix(0.8068 0.5908 -0.5908 0.8068 178.5378 -219.5397)" fill="#ECCA4B" width="0.888" height="2.364"/>
				</g>
			</g>
		</g>
	</g>
</g>
<path fill="none" stroke="#3F8359" stroke-miterlimit="10" d="M426.667,161.333c0,0-24,65.333,48,65.333
	c57.337,0,56-43.333,48-65.333"/>
<path fill="none" stroke="#9472AF" stroke-miterlimit="10" d="M522.334,161.333c0,0,2.667-9.333,38-14.667s71.333-12,91.333-46
	c0,0,19.999-37.333-4.667-39.333s-17.999,78-10.666,145.667S717.666,282,739,262s8.924-80.483-8-50.666"/>
<circle fill="#B13E38" cx="225.334" cy="235" r="1.964"/>
<circle fill="#B13E38" cx="262.334" cy="241" r="1.964"/>
<circle fill="#B13E38" cx="255.464" cy="270.773" r="1.964"/>
<circle fill="#B13E38" cx="300" cy="259.036" r="1.964"/>
<circle fill="#B13E38" cx="295.333" cy="339.667" r="1.964"/>
<circle fill="#3E8258" cx="426.334" cy="163.297" r="1.964"/>
<circle fill="#3E8258" cx="522.334" cy="161.333" r="1.964"/>
<circle fill="#3D7F8D" cx="67" cy="270.773" r="1.964"/>
<circle fill="#9372AE" cx="731" cy="211.334" r="1.964"/>
<g>
	<line fill="#FFFFFF" x1="425.334" y1="164.261" x2="405.79" y2="222.71"/>
	<g>
		<g>
			<g>
				<g>
					
						<rect x="425.017" y="164.238" transform="matrix(-0.9485 -0.3166 0.3166 -0.9485 776.3749 455.4813)" fill="#3E8359" width="0.356" height="0.845"/>
					
						<rect x="424.619" y="165.431" transform="matrix(-0.9487 -0.3162 0.3162 -0.9487 775.3463 457.5274)" fill="#3E8359" width="0.355" height="0.844"/>
					
						<rect x="424.22" y="166.624" transform="matrix(-0.9483 -0.3175 0.3175 -0.9483 773.8109 460.1813)" fill="#3E8359" width="0.355" height="0.844"/>
					
						<rect x="423.821" y="167.816" transform="matrix(-0.9483 -0.3175 0.3175 -0.9483 772.655 462.3787)" fill="#3E8359" width="0.355" height="0.845"/>
					
						<rect x="423.422" y="169.009" transform="matrix(-0.9483 -0.3175 0.3175 -0.9483 771.499 464.576)" fill="#3E8359" width="0.355" height="0.844"/>
					
						<rect x="423.024" y="170.202" transform="matrix(-0.9483 -0.3175 0.3175 -0.9483 770.3431 466.7734)" fill="#3E8359" width="0.355" height="0.845"/>
					
						<rect x="422.625" y="171.395" transform="matrix(-0.9483 -0.3175 0.3175 -0.9483 769.1873 468.9708)" fill="#3E8359" width="0.355" height="0.844"/>
				</g>
			</g>
			<g>
				<g>
					
						<rect x="422.225" y="172.588" transform="matrix(-0.9485 -0.3166 0.3166 -0.9485 768.2906 470.8673)" fill="#3E8359" width="0.356" height="0.844"/>
					
						<rect x="421.827" y="173.781" transform="matrix(-0.9483 -0.3175 0.3175 -0.9483 766.8754 473.3656)" fill="#3E8359" width="0.355" height="0.844"/>
					
						<rect x="421.428" y="174.973" transform="matrix(-0.9483 -0.3175 0.3175 -0.9483 765.7206 475.5627)" fill="#3E8359" width="0.355" height="0.845"/>
					
						<rect x="421.029" y="176.166" transform="matrix(-0.9483 -0.3175 0.3175 -0.9483 764.5646 477.7606)" fill="#3E8359" width="0.355" height="0.845"/>
					
						<rect x="420.63" y="177.359" transform="matrix(-0.9483 -0.3175 0.3175 -0.9483 763.4088 479.9575)" fill="#3E8359" width="0.355" height="0.845"/>
					
						<rect x="420.232" y="178.552" transform="matrix(-0.9483 -0.3175 0.3175 -0.9483 762.2527 482.1553)" fill="#3E8359" width="0.355" height="0.845"/>
					
						<rect x="419.833" y="179.745" transform="matrix(-0.9483 -0.3175 0.3175 -0.9483 761.097 484.3517)" fill="#3E8359" width="0.355" height="0.844"/>
				</g>
			</g>
			<g>
				<g>
					
						<rect x="419.433" y="180.938" transform="matrix(-0.949 -0.3154 0.3154 -0.949 760.6028 485.8101)" fill="#3E8359" width="0.356" height="0.844"/>
					
						<rect x="419.035" y="182.13" transform="matrix(-0.9483 -0.3175 0.3175 -0.9483 758.7852 488.7466)" fill="#3E8359" width="0.355" height="0.844"/>
					
						<rect x="418.636" y="183.323" transform="matrix(-0.9483 -0.3175 0.3175 -0.9483 757.6302 490.9441)" fill="#3E8359" width="0.355" height="0.844"/>
					
						<rect x="418.237" y="184.516" transform="matrix(-0.9483 -0.3175 0.3175 -0.9483 756.4743 493.1415)" fill="#3E8359" width="0.355" height="0.845"/>
					
						<rect x="417.838" y="185.709" transform="matrix(-0.9483 -0.3175 0.3175 -0.9483 755.3184 495.3389)" fill="#3E8359" width="0.355" height="0.844"/>
					
						<rect x="417.44" y="186.902" transform="matrix(-0.9483 -0.3175 0.3175 -0.9483 754.1625 497.5363)" fill="#3E8359" width="0.355" height="0.845"/>
					
						<rect x="417.041" y="188.095" transform="matrix(-0.9483 -0.3175 0.3175 -0.9483 753.0066 499.7336)" fill="#3E8359" width="0.355" height="0.844"/>
				</g>
			</g>
			<g>
				<g>
					
						<rect x="416.641" y="189.288" transform="matrix(-0.9485 -0.3166 0.3166 -0.9485 752.1222 501.6394)" fill="#3E8359" width="0.356" height="0.844"/>
					
						<rect x="416.243" y="190.48" transform="matrix(-0.9483 -0.3175 0.3175 -0.9483 750.6948 504.1279)" fill="#3E8359" width="0.355" height="0.845"/>
					
						<rect x="415.844" y="191.673" transform="matrix(-0.9487 -0.3162 0.3162 -0.9487 749.9492 505.8904)" fill="#3E8359" width="0.355" height="0.844"/>
					
						<rect x="415.445" y="192.866" transform="matrix(-0.9483 -0.3175 0.3175 -0.9483 748.3839 508.5234)" fill="#3E8359" width="0.355" height="0.845"/>
					
						<rect x="415.047" y="194.059" transform="matrix(-0.9487 -0.3162 0.3162 -0.9487 747.64 510.2872)" fill="#3E8359" width="0.355" height="0.844"/>
					
						<rect x="414.648" y="195.251" transform="matrix(-0.9483 -0.3175 0.3175 -0.9483 746.0721 512.9177)" fill="#3E8359" width="0.355" height="0.845"/>
					
						<rect x="414.249" y="196.444" transform="matrix(-0.9483 -0.3175 0.3175 -0.9483 744.9163 515.1146)" fill="#3E8359" width="0.355" height="0.844"/>
				</g>
			</g>
			<g>
				<g>
					
						<rect x="413.849" y="197.637" transform="matrix(-0.9485 -0.3166 0.3166 -0.9485 744.0381 517.0249)" fill="#3E8359" width="0.356" height="0.844"/>
					
						<rect x="413.451" y="198.83" transform="matrix(-0.9483 -0.3175 0.3175 -0.9483 742.6045 519.5094)" fill="#3E8359" width="0.355" height="0.844"/>
					
						<rect x="413.052" y="200.023" transform="matrix(-0.9483 -0.3175 0.3175 -0.9483 741.4495 521.7069)" fill="#3E8359" width="0.355" height="0.844"/>
					
						<rect x="412.653" y="201.216" transform="matrix(-0.9483 -0.3175 0.3175 -0.9483 740.2936 523.9043)" fill="#3E8359" width="0.355" height="0.845"/>
					
						<rect x="412.255" y="202.408" transform="matrix(-0.9487 -0.3162 0.3162 -0.9487 739.559 525.675)" fill="#3E8359" width="0.355" height="0.844"/>
					
						<rect x="411.856" y="203.602" transform="matrix(-0.9487 -0.3162 0.3162 -0.9487 738.4042 527.8744)" fill="#3E8359" width="0.355" height="0.845"/>
					
						<rect x="411.457" y="204.794" transform="matrix(-0.9487 -0.3162 0.3162 -0.9487 737.2498 530.0718)" fill="#3E8359" width="0.355" height="0.844"/>
				</g>
			</g>
			<g>
				<g>
					
						<rect x="411.057" y="205.987" transform="matrix(-0.9481 -0.3179 0.3179 -0.9481 735.5299 532.8326)" fill="#3E8359" width="0.356" height="0.844"/>
					
						<rect x="410.659" y="207.18" transform="matrix(-0.9487 -0.3162 0.3162 -0.9487 734.9406 534.4685)" fill="#3E8359" width="0.355" height="0.844"/>
					
						<rect x="410.26" y="208.372" transform="matrix(-0.9479 -0.3187 0.3187 -0.9479 732.9314 537.5078)" fill="#3E8359" width="0.355" height="0.845"/>
					
						<rect x="409.861" y="209.565" transform="matrix(-0.9487 -0.3162 0.3162 -0.9487 732.6323 538.8655)" fill="#3E8359" width="0.355" height="0.845"/>
					
						<rect x="409.462" y="210.758" transform="matrix(-0.9479 -0.3187 0.3187 -0.9479 730.6169 541.9006)" fill="#3E8359" width="0.355" height="0.845"/>
					
						<rect x="409.064" y="211.951" transform="matrix(-0.9487 -0.3162 0.3162 -0.9487 730.3231 543.2622)" fill="#3E8359" width="0.355" height="0.845"/>
					
						<rect x="408.665" y="213.144" transform="matrix(-0.9487 -0.3162 0.3162 -0.9487 729.1687 545.4596)" fill="#3E8359" width="0.355" height="0.844"/>
				</g>
			</g>
			<g>
				<g>
					
						<rect x="408.265" y="214.337" transform="matrix(-0.949 -0.3154 0.3154 -0.949 728.3025 547.3817)" fill="#3E8359" width="0.356" height="0.844"/>
					
						<rect x="407.867" y="215.53" transform="matrix(-0.9487 -0.3162 0.3162 -0.9487 726.8595 549.8564)" fill="#3E8359" width="0.355" height="0.844"/>
					
						<rect x="407.468" y="216.722" transform="matrix(-0.9479 -0.3187 0.3187 -0.9479 724.8318 552.8828)" fill="#3E8359" width="0.355" height="0.844"/>
					
						<rect x="407.069" y="217.915" transform="matrix(-0.9487 -0.3162 0.3162 -0.9487 724.5513 554.2533)" fill="#3E8359" width="0.355" height="0.845"/>
					
						<rect x="406.67" y="219.108" transform="matrix(-0.9479 -0.3187 0.3187 -0.9479 722.5175 557.2756)" fill="#3E8359" width="0.355" height="0.844"/>
					
						<rect x="406.272" y="220.301" transform="matrix(-0.9487 -0.3162 0.3162 -0.9487 722.242 558.65)" fill="#3E8359" width="0.355" height="0.845"/>
					
						<rect x="405.873" y="221.494" transform="matrix(-0.9479 -0.3187 0.3187 -0.9479 720.203 561.6684)" fill="#3E8359" width="0.355" height="0.844"/>
				</g>
			</g>
		</g>
	</g>
</g>
<g>
	<line fill="#FFFFFF" x1="522.334" y1="159.37" x2="548.332" y2="205.333"/>
	<g>
		<g>
			<g>
				<g>
					
						<rect x="522.36" y="159.317" transform="matrix(-0.8708 0.4917 -0.4917 -0.8708 1056.0895 41.9063)" fill="#3E8359" width="0.356" height="0.844"/>
					
						<rect x="522.979" y="160.412" transform="matrix(-0.8708 0.4917 -0.4917 -0.8708 1057.7858 43.6489)" fill="#3E8359" width="0.356" height="0.844"/>
					
						<rect x="523.598" y="161.506" transform="matrix(-0.8708 0.4917 -0.4917 -0.8708 1059.4812 45.3918)" fill="#3E8359" width="0.356" height="0.844"/>
					
						<rect x="524.217" y="162.601" transform="matrix(-0.8702 0.4927 -0.4927 -0.8702 1061.0388 46.4938)" fill="#3E8359" width="0.356" height="0.844"/>
					
						<rect x="524.835" y="163.695" transform="matrix(-0.8702 0.4927 -0.4927 -0.8702 1062.7349 48.2355)" fill="#3E8359" width="0.356" height="0.844"/>
					
						<rect x="525.455" y="164.789" transform="matrix(-0.8708 0.4917 -0.4917 -0.8708 1064.5693 50.6209)" fill="#3E8359" width="0.356" height="0.844"/>
					
						<rect x="526.074" y="165.883" transform="matrix(-0.8708 0.4917 -0.4917 -0.8708 1066.2656 52.3635)" fill="#3E8359" width="0.356" height="0.844"/>
				</g>
			</g>
			<g>
				<g>
					
						<rect x="526.693" y="166.978" transform="matrix(-0.8702 0.4927 -0.4927 -0.8702 1067.8264 53.4604)" fill="#3E8359" width="0.356" height="0.844"/>
					
						<rect x="527.312" y="168.072" transform="matrix(-0.8701 0.4929 -0.4929 -0.8701 1069.5055 55.1157)" fill="#3E8359" width="0.355" height="0.844"/>
					
						<rect x="527.932" y="169.167" transform="matrix(-0.8701 0.4929 -0.4929 -0.8701 1071.2026 56.8569)" fill="#3E8359" width="0.355" height="0.844"/>
					
						<rect x="528.55" y="170.262" transform="matrix(-0.8702 0.4927 -0.4927 -0.8702 1072.917 58.6856)" fill="#3E8359" width="0.356" height="0.844"/>
					
						<rect x="529.168" y="171.355" transform="matrix(-0.8702 0.4927 -0.4927 -0.8702 1074.613 60.4267)" fill="#3E8359" width="0.356" height="0.844"/>
					
						<rect x="529.788" y="172.45" transform="matrix(-0.8708 0.4917 -0.4917 -0.8708 1076.4421 62.8216)" fill="#3E8359" width="0.356" height="0.844"/>
					
						<rect x="530.407" y="173.544" transform="matrix(-0.8708 0.4917 -0.4917 -0.8708 1078.1384 64.5642)" fill="#3E8359" width="0.356" height="0.844"/>
				</g>
			</g>
			<g>
				<g>
					
						<rect x="531.026" y="174.638" transform="matrix(-0.8702 0.4927 -0.4927 -0.8702 1079.7045 65.6517)" fill="#3E8359" width="0.356" height="0.844"/>
					
						<rect x="531.645" y="175.733" transform="matrix(-0.8702 0.4927 -0.4927 -0.8702 1081.4016 67.3935)" fill="#3E8359" width="0.356" height="0.844"/>
					
						<rect x="532.264" y="176.827" transform="matrix(-0.8708 0.4917 -0.4917 -0.8708 1083.2266 69.7933)" fill="#3E8359" width="0.356" height="0.844"/>
					
						<rect x="532.883" y="177.922" transform="matrix(-0.8708 0.4917 -0.4917 -0.8708 1084.9229 71.5359)" fill="#3E8359" width="0.356" height="0.844"/>
					
						<rect x="533.501" y="179.016" transform="matrix(-0.8702 0.4927 -0.4927 -0.8702 1086.4912 72.6185)" fill="#3E8359" width="0.356" height="0.844"/>
					
						<rect x="534.121" y="180.11" transform="matrix(-0.8708 0.4917 -0.4917 -0.8708 1088.3148 75.0224)" fill="#3E8359" width="0.356" height="0.844"/>
					
						<rect x="534.74" y="181.205" transform="matrix(-0.8702 0.4927 -0.4927 -0.8702 1089.8855 76.1016)" fill="#3E8359" width="0.356" height="0.844"/>
				</g>
			</g>
			<g>
				<g>
					
						<rect x="535.359" y="182.299" transform="matrix(-0.8702 0.4927 -0.4927 -0.8702 1091.5826 77.8435)" fill="#3E8359" width="0.356" height="0.844"/>
					
						<rect x="535.978" y="183.393" transform="matrix(-0.8695 0.4939 -0.4939 -0.8695 1093.1379 78.8295)" fill="#3E8359" width="0.355" height="0.844"/>
					
						<rect x="536.597" y="184.488" transform="matrix(-0.8695 0.4939 -0.4939 -0.8695 1094.8359 80.5699)" fill="#3E8359" width="0.355" height="0.844"/>
					
						<rect x="537.216" y="185.582" transform="matrix(-0.8708 0.4917 -0.4917 -0.8708 1096.7957 83.7367)" fill="#3E8359" width="0.356" height="0.844"/>
					
						<rect x="537.834" y="186.676" transform="matrix(-0.8708 0.4917 -0.4917 -0.8708 1098.4911 85.4796)" fill="#3E8359" width="0.356" height="0.844"/>
					
						<rect x="538.454" y="187.771" transform="matrix(-0.8708 0.4917 -0.4917 -0.8708 1100.1876 87.2231)" fill="#3E8359" width="0.356" height="0.844"/>
					
						<rect x="539.073" y="188.865" transform="matrix(-0.8702 0.4927 -0.4927 -0.8702 1101.7637 88.2934)" fill="#3E8359" width="0.356" height="0.844"/>
				</g>
			</g>
			<g>
				<g>
					
						<rect x="539.692" y="189.959" transform="matrix(-0.8708 0.4917 -0.4917 -0.8708 1103.5802 90.7084)" fill="#3E8359" width="0.356" height="0.844"/>
					
						<rect x="540.311" y="191.054" transform="matrix(-0.8702 0.4927 -0.4927 -0.8702 1105.158 91.7766)" fill="#3E8359" width="0.356" height="0.844"/>
					
						<rect x="540.93" y="192.148" transform="matrix(-0.8702 0.4927 -0.4927 -0.8702 1106.854 93.5181)" fill="#3E8359" width="0.356" height="0.844"/>
					
						<rect x="541.549" y="193.243" transform="matrix(-0.8708 0.4917 -0.4917 -0.8708 1108.6685 95.9375)" fill="#3E8359" width="0.356" height="0.844"/>
					
						<rect x="542.167" y="194.337" transform="matrix(-0.8708 0.4917 -0.4917 -0.8708 1110.3638 97.6804)" fill="#3E8359" width="0.356" height="0.844"/>
					
						<rect x="542.786" y="195.432" transform="matrix(-0.8702 0.4927 -0.4927 -0.8702 1111.9447 98.7438)" fill="#3E8359" width="0.356" height="0.844"/>
					
						<rect x="543.406" y="196.526" transform="matrix(-0.8708 0.4917 -0.4917 -0.8708 1113.7566 101.1661)" fill="#3E8359" width="0.356" height="0.844"/>
				</g>
			</g>
			<g>
				<g>
					
						<rect x="544.025" y="197.62" transform="matrix(-0.8708 0.4917 -0.4917 -0.8708 1115.4529 102.9092)" fill="#3E8359" width="0.356" height="0.844"/>
					
						<rect x="544.644" y="198.714" transform="matrix(-0.8701 0.4929 -0.4929 -0.8701 1117.0208 103.877)" fill="#3E8359" width="0.355" height="0.844"/>
					
						<rect x="545.264" y="199.809" transform="matrix(-0.8701 0.4929 -0.4929 -0.8701 1118.718 105.6182)" fill="#3E8359" width="0.355" height="0.844"/>
					
						<rect x="545.882" y="200.904" transform="matrix(-0.8702 0.4927 -0.4927 -0.8702 1120.4294 107.4517)" fill="#3E8359" width="0.356" height="0.844"/>
					
						<rect x="546.5" y="201.998" transform="matrix(-0.8696 0.4938 -0.4938 -0.8696 1122.0139 108.507)" fill="#3E8359" width="0.356" height="0.844"/>
					
						<rect x="547.12" y="203.092" transform="matrix(-0.8708 0.4917 -0.4917 -0.8708 1123.933 111.6242)" fill="#3E8359" width="0.356" height="0.844"/>
					
						<rect x="547.739" y="204.186" transform="matrix(-0.8696 0.4938 -0.4938 -0.8696 1125.4097 111.9871)" fill="#3E8359" width="0.356" height="0.844"/>
				</g>
			</g>
		</g>
	</g>
</g>
<circle fill="#3E8258" cx="405.79" cy="221.332" r="1.964"/>
<circle fill="#3E8258" cx="548.333" cy="205.332" r="1.964"/>
<text transform="matrix(1 0 0 1 63.0361 152.5166)" display="none"><tspan x="0" y="0" display="inline" fill="#FFFCF8" font-family="'GuardianSans-Medium'" font-size="44">Programming</tspan><tspan x="0" y="52.8" display="inline" fill="#FFFCF8" font-family="'GuardianSans-Medium'" font-size="44">Design</tspan><tspan x="0" y="105.6" display="inline" fill="#FFFCF8" font-family="'GuardianSans-Medium'" font-size="44">Systems</tspan></text>
</svg>
