<svg xmlns="http://www.w3.org/2000/svg" width="550" height="448" viewBox="0 0 550 448">
  <title>Artboard 1</title>
  <g id="Layer_1" data-name="Layer 1">
    <rect width="550" height="448" style="fill: #f0f0f0"/>
    <rect x="73" y="171" width="399" height="237" style="fill: #fff;stroke: #212121;stroke-miterlimit: 10"/>
    <line x1="320.5" y1="171.5" x2="320.5" y2="408.5" style="fill: none;stroke: #212121;stroke-miterlimit: 10"/>
    <line x1="320.5" y1="317.5" x2="471.5" y2="317.5" style="fill: none;stroke: #212121;stroke-miterlimit: 10"/>
    <line x1="377.5" y1="317.5" x2="377.5" y2="408.5" style="fill: none;stroke: #212121;stroke-miterlimit: 10"/>
    <line x1="321.5" y1="352.5" x2="377.5" y2="352.5" style="fill: none;stroke: #212121;stroke-miterlimit: 10"/>
    <line x1="355.5" y1="317.5" x2="355.5" y2="352.5" style="fill: none;stroke: #212121;stroke-miterlimit: 10"/>
    <line x1="377.5" y1="338.5" x2="355.5" y2="338.5" style="fill: none;stroke: #212121;stroke-miterlimit: 10"/>
    <line x1="363.5" y1="352.5" x2="363.5" y2="338.5" style="fill: none;stroke: #212121;stroke-miterlimit: 10"/>
    <line x1="355.5" y1="344.5" x2="363.5" y2="344.5" style="fill: none;stroke: #212121;stroke-miterlimit: 10"/>
    <path d="M73,408c0-130.45,110.92-236,248-236" style="fill: none;stroke: #29b79b;stroke-miterlimit: 10"/>
    <path d="M471.5,317.5c0-80.15-67-145.5-151-145.5" style="fill: none;stroke: #29b79b;stroke-miterlimit: 10"/>
    <path d="M471.5,317.5c0,50.3-42,91-94,91" style="fill: none;stroke: #29b79b;stroke-miterlimit: 10"/>
    <path d="M321,352.5c0,31,25.27,56,56.5,56" style="fill: none;stroke: #29b79b;stroke-miterlimit: 10"/>
    <path d="M321,352.5a35,35,0,0,1,35.07-35" style="fill: none;stroke: #29b79b;stroke-miterlimit: 10"/>
    <path d="M377.5,338.5c0-11.61-9.84-21-22-21" style="fill: none;stroke: #29b79b;stroke-miterlimit: 10"/>
    <path d="M377.5,338.5a14,14,0,0,1-14,14" style="fill: none;stroke: #29b79b;stroke-miterlimit: 10"/>
    <path d="M355.5,344.5a8,8,0,0,0,8,8" style="fill: none;stroke: #29b79b;stroke-miterlimit: 10"/>
  </g>
  <g id="Layer_2" data-name="Layer 2">
    <line x1="324.28" y1="83.67" x2="470" y2="83.67" style="fill: none;stroke: #1c1a1a;stroke-miterlimit: 10"/>
    <line x1="78" y1="83.67" x2="323.08" y2="83.67" style="fill: none;stroke: #1c1a1a;stroke-miterlimit: 10"/>
    <circle cx="75" cy="83.5" r="4" style="fill: #fff;stroke: #1c1a1a;stroke-miterlimit: 10"/>
    <circle cx="470" cy="83.5" r="4" style="fill: #fff;stroke: #1c1a1a;stroke-miterlimit: 10"/>
    <circle cx="320" cy="83.5" r="4" style="fill: #fff;stroke: #1c1a1a;stroke-miterlimit: 10"/>
    <text transform="translate(168.67 109.67)" style="font-size: 12px;fill: #262626;font-family: Helvetica, Helvetica">Long line</text>
    <text transform="translate(375.67 109.67)" style="font-size: 12px;fill: #262626;font-family: Helvetica, Helvetica">Short line</text>
    <text transform="translate(136.67 40.67)" style="font-size: 14px;fill: #29b79b;font-family: Helvetica, Helvetica">This is the golden ratio</text>
    <g>
      <path d="M319,65c0-15.48-14.76-28-33-28" style="fill: none;stroke: #29b79b;stroke-miterlimit: 10"/>
      <polygon points="315 64.5 322.5 64.5 318.89 71.17 315 64.5" style="fill: #29b79b"/>
    </g>
  </g>
</svg>
